<?xml version="1.0" standalone="no"?><!DOCTYPE svg PUBLIC "-//W3C//DTD SVG 1.1//EN" "http://www.w3.org/Graphics/SVG/1.1/DTD/svg11.dtd"><svg t="1772617209592" class="icon" viewBox="0 0 1024 1024" version="1.1" xmlns="http://www.w3.org/2000/svg" p-id="6978" xmlns:xlink="http://www.w3.org/1999/xlink" width="200" height="200"><path d="M386.048 937.1648H131.4816a20.48 20.48 0 0 1-20.48-20.48V509.5424a20.48 20.48 0 0 1 20.48-20.48h254.5664a20.48 20.48 0 0 1 20.48 20.48v407.1424a20.48 20.48 0 0 1-20.48 20.48z m-233.8816-40.96h213.4016V530.0224H151.9616z" fill="#0090FF" p-id="6979"></path><path d="M640.4096 937.1648H386.048a20.48 20.48 0 0 1-20.48-20.48V127.7952a20.48 20.48 0 0 1 20.48-20.48h254.3616a20.48 20.48 0 0 1 20.48 20.48v788.8896a20.48 20.48 0 0 1-20.48 20.48z m-233.8816-40.96h213.4016V148.2752H406.528z" fill="#0090FF" p-id="6980"></path><path d="M894.976 937.1648H640.4096a20.48 20.48 0 0 1-20.48-20.48V331.3664a20.48 20.48 0 0 1 20.48-20.48H894.976a20.48 20.48 0 0 1 20.48 20.48v585.3184a20.48 20.48 0 0 1-20.48 20.48z m-233.8816-40.96H874.496V351.8464H660.8896z" fill="#0090FF" p-id="6981"></path></svg>